<svg width="22" height="22" viewBox="0 0 22 22" fill="none" xmlns="http://www.w3.org/2000/svg">
<path d="M11.001 0.686523C12.1014 0.686523 13.0244 1.45353 13.0244 2.42871V3.80762C13.0244 4.10465 12.7485 4.31836 12.4434 4.31836C12.1382 4.31822 11.8633 4.10361 11.8633 3.80762V2.42871C11.8633 2.04571 11.491 1.70703 11.001 1.70703C10.5111 1.70718 10.1396 2.0458 10.1396 2.42871V3.80762C10.1396 4.10371 9.86383 4.31836 9.55859 4.31836C9.25363 4.31821 8.97852 4.10454 8.97852 3.80762V2.42871C8.97852 1.45363 9.90065 0.686669 11.001 0.686523Z" fill="#929DB2" stroke="#929DB2" stroke-width="0.2"/>
<path d="M13.3574 17.9709C13.6293 17.9711 13.8495 18.1912 13.8496 18.4631C13.8496 20.0347 12.5717 21.3137 11 21.3137C9.42834 21.3137 8.15039 20.0347 8.15039 18.4631C8.15054 18.1912 8.37071 17.971 8.64258 17.9709C8.91457 17.9709 9.13559 18.1911 9.13574 18.4631C9.13574 19.4906 9.97252 20.3273 11 20.3273C12.0275 20.3273 12.8643 19.4906 12.8643 18.4631C12.8644 18.1911 13.0854 17.9709 13.3574 17.9709Z" fill="#929DB2" stroke="#929DB2" stroke-width="0.2"/>
<path d="M11.002 3.82812C14.0899 3.82828 16.6016 6.33974 16.6016 9.42773V11.8145C16.6016 13.2993 17.2112 14.7057 18.2842 15.7178L18.5049 15.9141V15.915C18.7953 16.1639 18.9589 16.5172 18.959 16.8916C18.959 17.5964 18.3863 18.1707 17.6807 18.1709H4.32324C3.61823 18.1709 3.04492 17.5966 3.04492 16.8916C3.04504 16.5176 3.2077 16.1635 3.49219 15.9199L3.71387 15.7217C4.79196 14.7049 5.40137 13.2984 5.40137 11.8145V9.42773C5.40137 6.33965 7.91387 3.82812 11.002 3.82812ZM11.002 4.81348C8.45725 4.81348 6.3877 6.88303 6.3877 9.42773V11.8145C6.3877 13.5717 5.66614 15.2363 4.39648 16.4346L4.13574 16.667C4.06744 16.7252 4.03039 16.8068 4.03027 16.8916C4.03027 17.0532 4.16161 17.1846 4.32324 17.1846H17.6807C17.8421 17.1843 17.9727 17.0531 17.9727 16.8916C17.9725 16.8065 17.9357 16.7255 17.8711 16.6699L17.6094 16.4365C16.3378 15.2363 15.6162 13.571 15.6162 11.8145V9.42773C15.6162 6.88313 13.5465 4.81363 11.002 4.81348Z" fill="#929DB2" stroke="#929DB2" stroke-width="0.2"/>
</svg>
