<svg width="22" height="22" viewBox="0 0 22 22" fill="none" xmlns="http://www.w3.org/2000/svg">
<path d="M12.0449 0.950195C17.4794 0.955591 21.8799 5.37222 21.8691 10.8066C21.8689 16.2568 17.4365 20.6892 11.9863 20.6895C10.8699 20.6948 9.76419 20.5017 8.71191 20.1221L3.47949 21.042H3.47852C3.3686 21.0593 3.2523 21.0478 3.14648 21.001V21.002C2.85271 20.8786 2.71201 20.532 2.84082 20.2334L4.25977 16.9375C2.88255 15.2021 2.12988 13.052 2.12988 10.8379C2.13014 5.38761 6.56235 0.955082 12.0127 0.955078H12.0195L12.0244 0.950195H12.0449ZM12.0176 2.12207C7.21731 2.12233 3.30664 6.02736 3.30664 10.833C3.30664 11.9145 3.50912 12.9853 3.90332 13.9922C4.25492 14.8925 4.75614 15.7243 5.38477 16.4541C5.53104 16.6241 5.56605 16.8637 5.47852 17.0684L4.34668 19.7002L8.6709 18.9453H8.67188C8.77528 18.9281 8.88117 18.933 8.98242 18.9746H8.98145C9.94567 19.3368 10.9632 19.5225 11.9912 19.5225C16.7915 19.5225 20.7019 15.6176 20.7021 10.8066V10.7744C20.6968 5.98483 16.8081 2.11162 12.0186 2.12207H12.0176Z" fill="#929DB2" stroke="#929DB2" stroke-width="0.1"/>
<path d="M11.6016 8.49019C11.9238 8.49029 12.1875 8.75385 12.1875 9.07613C12.1874 9.39828 11.9237 9.66196 11.6016 9.66206H8.70801C8.38576 9.66206 8.12222 9.39834 8.12207 9.07613C8.12207 8.75379 8.38567 8.49019 8.70801 8.49019H11.6016Z" fill="#929DB2" stroke="#929DB2" stroke-width="0.1"/>
<path d="M15.3252 11.7649C15.6475 11.7649 15.9111 12.0285 15.9111 12.3508C15.911 12.673 15.6474 12.9367 15.3252 12.9367H8.68066C8.35842 12.9367 8.09488 12.673 8.09473 12.3508C8.09473 12.0285 8.35833 11.7649 8.68066 11.7649H15.3252Z" fill="#929DB2" stroke="#929DB2" stroke-width="0.1"/>
</svg>
