<svg width="22" height="22" viewBox="0 0 22 22" fill="none" xmlns="http://www.w3.org/2000/svg">
<path d="M11.0013 11.6872C8.09547 11.6872 5.73047 9.32217 5.73047 6.41634C5.73047 3.51051 8.09547 1.14551 11.0013 1.14551C13.9071 1.14551 16.2721 3.51051 16.2721 6.41634C16.2721 9.32217 13.9071 11.6872 11.0013 11.6872ZM11.0013 2.52051C8.8563 2.52051 7.10547 4.27134 7.10547 6.41634C7.10547 8.56134 8.8563 10.3122 11.0013 10.3122C13.1463 10.3122 14.8971 8.56134 14.8971 6.41634C14.8971 4.27134 13.1463 2.52051 11.0013 2.52051Z" fill="#929DB2"/>
<path d="M18.8752 20.8542C18.4994 20.8542 18.1877 20.5425 18.1877 20.1667C18.1877 17.0042 14.9612 14.4375 11.0012 14.4375C7.04111 14.4375 3.81445 17.0042 3.81445 20.1667C3.81445 20.5425 3.50279 20.8542 3.12695 20.8542C2.75112 20.8542 2.43945 20.5425 2.43945 20.1667C2.43945 16.2525 6.28028 13.0625 11.0012 13.0625C15.722 13.0625 19.5627 16.2525 19.5627 20.1667C19.5627 20.5425 19.2511 20.8542 18.8752 20.8542Z" fill="#929DB2"/>
</svg>
